<?xml version="1.0" encoding="UTF-8"?>
<!DOCTYPE svg PUBLIC "-//W3C//DTD SVG 1.1//EN" "http://www.w3.org/Graphics/SVG/1.1/DTD/svg11.dtd">
<svg xmlns="http://www.w3.org/2000/svg" xmlns:xlink="http://www.w3.org/1999/xlink" version="1.1" width="122px" height="122px" viewBox="-0.5 -0.5 122 122">
  <g>
    <path d="M 40 120 L 40 0" fill="none" stroke="#666" stroke-miterlimit="10" pointer-events="stroke"/>
    <path d="M 80 120 L 80 0" fill="none" stroke="#666" stroke-miterlimit="10" pointer-events="stroke"/>
    <path d="M 0 40 L 120 40" fill="none" stroke="#666" stroke-miterlimit="10" pointer-events="stroke"/>
    <path d="M 0 80 L 120 80" fill="none" stroke="#666" stroke-miterlimit="10" pointer-events="stroke"/>
    <ellipse cx="92.14" cy="92.14" rx="2.15" ry="2.15" fill="#ad494a" stroke="#666" />
    <ellipse cx="92.14" cy="112.71" rx="2.15" ry="2.15" fill="#e69e57" stroke="#666" />
    <ellipse cx="104.14" cy="96.14" rx="2.15" ry="2.15" fill="#14a5b5" stroke="#666" />
    <ellipse cx="11.43" cy="26.14" rx="2.15" ry="2.15" fill="#ad494a" stroke="#666" />
    <ellipse cx="31.43" cy="26.14" rx="2.15" ry="2.15" fill="#14a5b5" stroke="#666" />
    <ellipse cx="15.72" cy="13.29" rx="2.15" ry="2.15" fill="#989aa1" stroke="#666" />
    <ellipse cx="91.28" cy="49.28" rx="2.15" ry="2.15" fill="#ad494a" stroke="#666" />
    <ellipse cx="98.43" cy="73.28" rx="2.15" ry="2.15" fill="#9467bd" stroke="#666" />
    <ellipse cx="100.57" cy="54.43" rx="2.15" ry="2.15" fill="#989aa1" stroke="#666" />
    <ellipse cx="64.14" cy="68.14" rx="2.15" ry="2.15" fill="#e69e57" stroke="#666" />
    <ellipse cx="72.14" cy="65.57" rx="2.15" ry="2.15" fill="#14a5b5" stroke="#666" />
    <ellipse cx="56.43" cy="52.72" rx="2.15" ry="2.15" fill="#989aa1" stroke="#666" />
    <ellipse cx="15" cy="99.86" rx="2.15" ry="2.15" fill="#9467bd" stroke="#666" />
    <ellipse cx="27.14" cy="105" rx="2.15" ry="2.15" fill="#14a5b5" stroke="#666" />
    <ellipse cx="22.86" cy="96.15" rx="2.15" ry="2.15" fill="#989aa1" stroke="#666" />
    <ellipse cx="47.14" cy="92.14" rx="2.15" ry="2.15" fill="#ad494a" stroke="#666" />
    <ellipse cx="51.43" cy="105" rx="2.15" ry="2.15" fill="#e69e57" stroke="#666" />
    <ellipse cx="72.14" cy="110.14" rx="2.15" ry="2.15" fill="#14a5b5" stroke="#666" />
    <ellipse cx="32.14" cy="60.43" rx="2.15" ry="2.15" fill="#ad494a" stroke="#666" />
    <ellipse cx="10" cy="68.14" rx="2.15" ry="2.15" fill="#e69e57" stroke="#666" />
    <ellipse cx="17.15" cy="71.57" rx="2.15" ry="2.15" fill="#9467bd" stroke="#666" />
    <ellipse cx="87.71" cy="22.71" rx="2.15" ry="2.15" fill="#e69e57" stroke="#666" />
    <ellipse cx="94.86" cy="26.14" rx="2.15" ry="2.15" fill="#9467bd" stroke="#666" />
    <ellipse cx="92" cy="12.14" rx="2.15" ry="2.15" fill="#14a5b5" stroke="#666" />
    <ellipse cx="47.14" cy="9.85" rx="2.15" ry="2.15" fill="#ad494a" stroke="#666" />
    <ellipse cx="54.29" cy="33.85" rx="2.15" ry="2.15" fill="#9467bd" stroke="#666" />
    <ellipse cx="72.14" cy="27.85" rx="2.15" ry="2.15" fill="#14a5b5" stroke="#666" />
  </g>
</svg>
